<?xml version="1.0" encoding="utf-8"?>
<!-- Generator: Adobe Illustrator 15.0.0, SVG Export Plug-In . SVG Version: 6.00 Build 0)  -->
<!DOCTYPE svg PUBLIC "-//W3C//DTD SVG 1.1 Tiny//EN" "http://www.w3.org/Graphics/SVG/1.1/DTD/svg11-tiny.dtd">
<svg version="1.1" baseProfile="tiny" id="Layer_1" xmlns="http://www.w3.org/2000/svg" xmlns:xlink="http://www.w3.org/1999/xlink"
	 x="0px" y="0px" width="181px" height="55px" viewBox="0 0 181 55" xml:space="preserve">
<polygon fill="#010101" points="11.058,3.05 9.859,44.604 24.857,44.188 26.316,51.949 4.183,49.867 4.046,3.31 "/>
<polygon fill="#010101" points="37.305,13.152 35.117,18.882 39.856,20.547 42.408,16.224 "/>
<polygon fill="#010101" points="24.649,26.223 28.347,31.275 36.159,29.348 35.482,50.179 41.106,51.065 41.627,23.882 "/>
<polygon fill="#010101" points="89.276,13.152 87.089,18.882 91.828,20.547 94.379,16.224 "/>
<polygon fill="#010101" points="76.621,26.223 80.32,31.275 88.132,29.348 87.455,50.179 93.079,51.065 93.6,23.882 "/>
<polygon fill="#010101" points="141.459,13.152 139.27,18.882 144.01,20.547 146.561,16.224 "/>
<polygon fill="#010101" points="128.803,26.223 132.5,31.275 140.313,29.348 139.635,50.179 145.258,51.065 145.779,23.882 "/>
<path fill="#010101" d="M72.456,28.309l-6.979-4.426l-8.332,1.508l1.458-21.56l-6.354-0.26l-0.989,46.921l15.051,0.573l6.456-6.407
	L72.456,28.309z M66.606,45.527l-9.721,0.694l-0.416-12.708l4.859-4.512l7.085,2.359L66.606,45.527z"/>
<path fill="#010101" d="M175.977,3.415l-6.275,0.26l1.441,21.56l-8.232-1.511l-6.893,4.428l-0.309,16.353l6.377,6.404l14.867-0.573
	L175.977,3.415z M171.328,46.222l-9.881-0.694l-1.83-14.166l7.195-2.359l4.939,4.512L171.328,46.222z"/>
<polyline fill="#010101" points="103.199,24.766 109.031,24.28 108.682,29.002 113.057,25.253 125.834,24.28 123.961,30.878 
	116.391,29.764 108.406,36.501 109.031,51.359 103.199,50.665 "/>
</svg>
